<svg xmlns="http://www.w3.org/2000/svg" xmlns:xlink="http://www.w3.org/1999/xlink" width="384" height="711" viewBox="0 0 384 711">
    <defs>
        <path id="a" d="M366.336 98.4c6.144 6.144 13.152 13.056 17.664 24v174.528c-20.16 36.48-53.472 64.416-99.168 83.136-41.856 17.184-94.368 26.208-151.968 26.208-6.24 0-22.464 9.6-33.216 15.84-18.336 10.752-35.808 21.024-51.84 21.024-3.264.096-6.432-.384-9.6-1.344C24.576 437.76 11.616 431.52 0 423.264v-45.696c12.384 14.784 27.84 26.016 47.712 32.064 6.048.576 24.864-10.464 34.944-16.416 17.952-10.56 34.848-20.448 50.208-20.448 53.28 0 101.376-8.256 139.2-23.712 43.68-17.952 73.536-45.216 88.8-81.216 6.24-14.784 1.92-48-1.536-74.592-2.208-16.416-4.224-31.968-4.224-44.544 0-14.112-3.84-17.952-12.48-26.496-7.008-6.912-15.84-15.648-22.656-30.816C304.32 56.832 256.416 23.136 222.72 0h57.696c28.8 21.984 56.832 48.096 70.176 77.568 4.32 9.504 9.6 14.784 15.744 20.832zm-1.152 339.36a441.55 441.55 0 0 0 18.72-11.52v52.512c-72.768 41.376-156.576 65.088-230.4 65.088-8.832 0-28.8 9.024-44.928 16.224-24.192 10.848-47.232 21.216-67.392 21.216-4.224 0-8.448-.48-12.48-1.536-9.888-2.496-19.488-5.952-28.704-10.272v-51.84a116.32 116.32 0 0 0 39.936 18.72c.192 0 4.224.864 16.8-3.36 10.176-3.36 22.08-8.736 33.6-13.92 23.04-10.368 44.832-20.16 63.264-20.16 67.392 0 144.48-22.272 211.584-61.152zM174.24 624.864c63.456 0 136.992-19.776 209.76-55.68v61.824c-16.608 7.488-33.312 14.112-49.824 19.968-56.352 19.872-110.112 29.952-159.936 29.952-11.52 0-35.52 8.832-56.64 16.608-12.576 4.608-24.96 9.12-36.864 12.864H0v-59.232c10.176 5.184 20.928 9.024 31.968 11.616.96.192 6.624 1.152 22.944-3.264 13.152-3.456 28.512-9.12 43.392-14.592 28.032-10.272 54.528-20.064 75.936-20.064z"/>
    </defs>
    <use fill="#000" fill-rule="nonzero" xlink:href="#a"/>
</svg>
